<?xml version="1.0" encoding="utf-8"?>
<!-- Generator: Adobe Illustrator 16.0.0, SVG Export Plug-In . SVG Version: 6.00 Build 0)  -->
<!DOCTYPE svg PUBLIC "-//W3C//DTD SVG 1.1//EN" "http://www.w3.org/Graphics/SVG/1.1/DTD/svg11.dtd">
<svg version="1.1" id="Layer_1" xmlns="http://www.w3.org/2000/svg" xmlns:xlink="http://www.w3.org/1999/xlink" x="0px" y="0px"
	 width="547.679px" height="126.922px" viewBox="651.292 103.412 547.679 126.922"
	 enable-background="new 651.292 103.412 547.679 126.922" xml:space="preserve">
<g>
	<g>
		<path fill="#E41B23" d="M690.77,213.209c7.61-6.484,14.447-14.235,18.816-23.327c2.678-5.708,4.793-11.627,5.85-17.83
			c1.479-8.949,2.043-18.041,2.537-27.132c0.281-6.271,0.422-12.544,0.422-18.886v-22.622h-9.653c0,3.735,0,7.471,0,11.205
			c-0.282,11.065-0.917,22.129-2.608,33.052c-1.339,8.598-3.241,17.195-6.835,25.088c-3.103,6.906-7.118,13.461-12.192,19.028
			c-4.934,5.497-10.782,10.078-17.267,13.531c-5.496,2.889-11.416,5.073-17.547,5.99v18.957c5.074-0.705,10.078-1.973,14.94-3.665
			C675.688,223.64,683.934,219.27,690.77,213.209z"/>
		<path fill="#E41B23" d="M722.13,189.882c0,13.461-0.069,26.992,0.071,40.452c5.849-0.071,11.769,0,17.688,0V103.482
			c-5.92,0-11.84,0-17.76,0C722.13,132.235,722.13,161.059,722.13,189.882z"/>
		<path fill="#E41B23" d="M802.258,209.544c-8.879-2.889-17.054-7.752-23.82-14.236c-7.047-6.695-12.473-15.081-16.208-24.031
			c-3.946-9.303-5.708-19.31-6.977-29.247c-1.551-12.826-1.974-25.722-1.902-38.619h-9.585v20.79
			c-0.071,12.262,0.353,24.524,1.41,36.716c0.563,5.638,1.198,11.346,2.678,16.843c1.479,5.497,3.664,10.783,6.483,15.787
			c3.594,6.342,8.387,11.98,13.741,16.984c3.243,2.959,6.625,5.849,10.359,8.245c5.075,3.313,10.643,5.92,16.421,7.893
			c4.862,1.621,9.797,2.96,14.87,3.594c0-6.342,0-12.614,0-18.957C807.262,210.954,804.725,210.32,802.258,209.544z"/>
		<path fill="#E41B23" d="M976.773,124.576v-19.091h-70.455v19.091c8.637,0,17.273,0,25.909,0v105.606h18.637V124.576
			C959.5,124.576,968.137,124.576,976.773,124.576L976.773,124.576z"/>
		<path fill="#E41B23" d="M1117.985,178.516c3.637-2.727,7.879-4.545,11.212-7.576c6.516-5.605,10-13.939,10.606-22.272
			c0.605-8.333,0.605-16.515-3.182-23.788c-5.455-11.212-17.273-18.939-29.849-19.242H1084.5c-1.97,0-3.787,0.152-5.605,0.758
			c-6.061,1.97-10.606,8.03-10.606,14.394c0,36.516,0,73.03,0,109.546h18.788c0-33.939,0-67.879,0-101.818
			c0.151-2.273,1.97-4.091,4.242-4.091h14.395c6.97-0.304,13.484,5.151,15,11.818c1.212,5.151,1.363,11.061-1.364,15.757
			c-3.636,6.364-10.303,10.304-16.97,12.879c-3.484,1.363-6.666,3.939-8.03,7.576c-1.666,4.849-0.909,10.151,1.97,14.242
			c9.546,14.395,19.091,28.939,28.788,43.485h22.121c-10-15-20.303-30-30.151-45.151
			C1115.864,182.91,1116.016,180.031,1117.985,178.516L1117.985,178.516z"/>
		<path fill="#E41B23" d="M1199.955,222.909c0.151-4.545-4.697-8.03-8.939-6.817c-3.182,0.757-5.454,3.636-5.454,6.817
			c-0.304,3.637,2.727,6.97,6.363,7.273C1196.016,230.939,1200.258,227.152,1199.955,222.909z M1192.379,228.97
			c-3.939,0-6.817-4.696-5-8.182c0.606-1.515,1.97-2.727,3.485-3.182c3.03-1.061,6.666,0.758,7.424,3.939
			S1196.318,229.425,1192.379,228.97z"/>
		<path fill="#E41B23" d="M1014.501,105.789c-5.909-1.516-12.122,0.757-15.759,5.757c-2.121,2.879-2.575,6.515-3.636,9.696
			c-10.606,36.364-21.061,72.729-31.667,108.94h19.395c3.03-10.455,6.061-20.909,9.091-31.364c12.575,0,25.151,0,37.727,0
			c3.031,10.455,6.061,20.909,9.092,31.364c6.515,0,13.03,0,19.545,0c-11.061-37.879-21.969-75.758-33.03-113.637
			C1023.895,111.546,1019.804,107,1014.501,105.789L1014.501,105.789z M997.228,181.092c4.546-15.758,9.091-31.516,13.637-47.273
			c4.545,15.758,9.091,31.516,13.637,47.273H997.228z"/>
		<path fill="#E41B23" d="M882.682,108.667c-5.908-5.151-15.908-4.091-20.908,2.121c-2.728,3.03-3.182,7.272-4.395,11.062
			c-10.605,36.211-21.061,72.271-31.515,108.484h19.394c3.03-10.455,6.061-20.909,9.242-31.364h37.728
			c3.03,10.455,6.061,20.909,9.091,31.364h19.546c-11.061-37.879-22.122-75.758-33.183-113.637
			C886.925,113.516,885.106,110.789,882.682,108.667L882.682,108.667z M859.652,181.092c4.545-15.758,9.09-31.516,13.787-47.121
			c4.546,15.757,9.092,31.515,13.637,47.121C877.834,181.092,868.742,181.242,859.652,181.092L859.652,181.092z"/>
		<path fill="#E41B23" d="M1194.955,219.879c-1.667-1.061-3.637-0.303-5.455-0.605v7.728h1.364c0-1.213,0-2.273,0.151-3.485
			c0.606,0.151,1.363,0.303,1.818,0.606c1.061,1.212,1.363,3.484,3.484,2.879c-0.605-1.213-1.515-2.425-2.424-3.485
			C1195.409,223.213,1196.318,221.243,1194.955,219.879L1194.955,219.879z M1190.864,222.758v-2.272
			c1.061,0.151,2.575-0.303,3.182,0.758c0,0.151,0.151,0.151,0.151,0.303C1194.046,223.062,1191.925,222.606,1190.864,222.758
			L1190.864,222.758z"/>
		<path fill="#E41B23" d="M1156.925,105.637v124.697h19.697c0-41.516,0-83.03,0-124.697H1156.925z"/>
	</g>
</g>
</svg>
