<?xml version="1.0" encoding="UTF-8"?>
<svg xmlns="http://www.w3.org/2000/svg" xmlns:xlink="http://www.w3.org/1999/xlink" width="657.5pt" height="452.2pt" viewBox="0 0 657.5 452.2" version="1.1">
<defs>
<clipPath id="clip1">
  <path d="M 0 0 L 453 0 L 453 452.199219 L 0 452.199219 Z M 0 0 "/>
</clipPath>
<clipPath id="clip2">
  <path d="M 237 24 L 657.5 24 L 657.5 441 L 237 441 Z M 237 24 "/>
</clipPath>
</defs>
<g id="surface1">
<path style=" stroke:none;fill-rule:nonzero;fill:rgb(99.198914%,79.598999%,14.498901%);fill-opacity:1;" d="M 119.519531 7.5 L 7.601563 119.328125 L 7.5 309.828125 L 142.128906 444.601563 L 332.628906 444.699219 L 444.578125 332.882813 L 119.519531 7.5 "/>
<g clip-path="url(#clip1)" clip-rule="nonzero">
<path style="fill:none;stroke-width:150;stroke-linecap:round;stroke-linejoin:round;stroke:rgb(13.699341%,12.199402%,12.5%);stroke-opacity:1;stroke-miterlimit:4;" d="M 1195.195313 4447 L 76.015625 3328.71875 L 75 1423.71875 L 1421.289063 75.984375 L 3326.289063 75.007813 L 4445.78125 1193.171875 Z M 1195.195313 4447 " transform="matrix(0.1,0,0,-0.1,0,452.2)"/>
</g>
<g clip-path="url(#clip2)" clip-rule="nonzero">
<path style=" stroke:none;fill-rule:nonzero;fill:rgb(13.699341%,12.199402%,12.5%);fill-opacity:1;" d="M 657.410156 321.769531 L 657.5 147.839844 L 534.570313 24.789063 L 360.640625 24.699219 L 237.589844 147.628906 L 237.550781 244.800781 L 344.699219 244.851563 L 538.671875 440.398438 L 657.410156 321.769531 "/>
</g>
<path style=" stroke:none;fill-rule:nonzero;fill:rgb(13.699341%,12.199402%,12.5%);fill-opacity:1;" d="M 93.058594 240 C 83.070313 237.78125 74.058594 228.589844 74.058594 228.589844 L 77.859375 217.191406 L 89.261719 209.601563 C 89.261719 209.601563 100.660156 210.550781 104.460938 213.398438 C 108.261719 216.25 112.058594 228.589844 112.058594 228.589844 L 103.511719 236.191406 C 103.511719 236.191406 101.609375 241.898438 93.058594 240 Z M 147.660156 170.398438 L 162.859375 147.601563 L 181.859375 147.601563 C 181.859375 147.601563 198.011719 171.351563 198.011719 175.148438 C 198.011719 178.941406 185.660156 196.988281 185.660156 196.988281 L 160.960938 196.039063 Z M 147.660156 350.398438 C 160.511719 358.609375 174.171875 358.460938 187.519531 358.300781 C 209.699219 358.039063 231.039063 351.078125 246.460938 333.289063 C 258.808594 315.25 259.148438 304 266.460938 283.589844 C 270.730469 271.648438 275.910156 264.898438 275.910156 264.898438 C 275.910156 264.898438 280.199219 281.019531 279.710938 300.050781 C 279.378906 312.75 277.109375 326.230469 269.261719 339 C 254.058594 363.691406 239.808594 373.191406 229.359375 375.101563 C 218.910156 376.988281 189.460938 380.789063 170.460938 372.25 C 155.648438 365.582031 147.660156 350.398438 147.660156 350.398438 "/>
<path style=" stroke:none;fill-rule:nonzero;fill:rgb(19.999695%,23.098755%,59.199524%);fill-opacity:1;" d="M 514.390625 328.511719 L 498.171875 313.21875 L 490.328125 276.3125 L 529.179688 257.488281 L 533.859375 235.070313 L 528.949219 202.71875 L 581.871094 190.898438 L 596.160156 252.679688 L 590.710938 278.851563 L 566.109375 285.160156 L 558.320313 322.539063 Z M 454.6875 122.109375 C 454.6875 122.109375 451.519531 107.160156 454.089844 106.339844 C 456.660156 105.519531 461.6875 88.46875 461.6875 88.46875 L 480.25 92.550781 L 488.269531 109.949219 L 473.238281 126.191406 Z M 424.777344 191.519531 L 399.398438 201.570313 L 372.828125 180.089844 L 376.898438 141.890625 L 401.5 135.578125 L 428.851563 153.320313 L 424.777344 191.519531 "/>
</g>
</svg>
